<?xml version="1.0" encoding="utf-8"?>
<!-- Generator: Adobe Illustrator 24.2.0, SVG Export Plug-In . SVG Version: 6.00 Build 0)  -->
<svg version="1.1" id="Laag_1" xmlns="http://www.w3.org/2000/svg" xmlns:xlink="http://www.w3.org/1999/xlink" x="0px" y="0px"
	 viewBox="0 0 595.3 841.9" style="enable-background:new 0 0 595.3 841.9;" xml:space="preserve">
<style type="text/css">
	.st0{clip-path:url(#SVGID_2_);fill:#3F689C;}
</style>
<g>
	<g>
		<defs>
			<rect id="SVGID_1_" x="156" y="376.9" width="85.9" height="90"/>
		</defs>
		<clipPath id="SVGID_2_">
			<use xlink:href="#SVGID_1_"  style="overflow:visible;"/>
		</clipPath>
		<path class="st0" d="M182.8,380.5c0.4-0.2,0.9-0.4,1.4-0.6c0.4-0.2,0.9-0.4,1.4-0.5c1-0.3,1.9-0.7,2.9-0.9
			c-8.3,2.1-16.1,7-21.9,13.7c-1.4,1.7-2.8,3.5-3.9,5.3c-1.2,1.9-2.2,3.8-3.1,5.9c-0.8,2-1.6,4.1-2.1,6.3c-0.6,2.1-0.9,4.3-1.2,6.5
			c-1,8.8,0.8,17.8,4.8,25.6c4,7.7,10.2,14.1,17.3,18.5c0.4,0.3,1,0.6,1.6,1c0.6,0.4,1.3,0.8,2,1.2c1.4,0.8,2.9,1.5,3.8,1.8
			c1,0.4,2,0.7,3.1,1c1.1,0.3,2.1,0.6,3.3,0.8c2.2,0.4,4.5,0.7,6.9,0.8c2.3,0.1,4.7,0,7.1-0.2c2.4-0.2,4.8-0.7,7-1.4
			c4.7-1.3,9-3.5,12.9-6.1c1.9-1.3,3.7-2.8,5.4-4.3c1.7-1.6,3.1-3.2,4.5-4.8c2.7-3.4,4.1-6.9,4.9-9.4c0.2-0.6,0.3-1.2,0.4-1.7
			c0.1-0.5,0.2-0.9,0.2-1.3c0.1-0.7,0.1-1.1,0.1-1.1c0.2-1,0.3-2,0.2-2.6c-0.1-0.5-0.3-0.6-0.8,0.2c-0.3,0.9-0.8,2.2-1.5,3.5
			c-0.3,0.7-0.6,1.4-1,2c-0.2,0.3-0.4,0.7-0.5,1c-0.2,0.3-0.4,0.6-0.6,1c-1.6,2.5-3.2,4.3-3.5,4.1c0,0,0.2-0.4,0.6-1.1
			c0.2-0.3,0.4-0.6,0.7-1c0.2-0.4,0.5-0.8,0.8-1.2c-0.3-0.2,0-1.7,0.4-3.3c0.1-0.4,0.2-0.8,0.3-1.3c0.1-0.4,0.2-0.8,0.3-1.2
			c0.2-0.8,0.4-1.5,0.5-1.8c0.1-0.4,0.3-1.5,0.6-2.8c0.1-0.6,0.2-1.4,0.3-2.1c0.1-0.8,0.2-1.6,0.2-2.3c0-0.4,0-0.8,0.1-1.2
			c0-0.4,0-0.8,0-1.2c0-0.7,0-1.5,0-2.1c0-0.6,0-1.2-0.1-1.7c0-0.5-0.1-0.8-0.1-1c-0.1-1.4-0.4-1.4-0.7-0.5
			c-0.3,0.9-0.7,2.5-1.3,4.5c-0.6,1.9-1.4,4.2-2.3,6.2c-0.9,2-2,3.9-2.8,5.2c-0.9,1.4-1.1,1.2-1.1,0.8c0-0.4,0.1-1.3-0.1-1.4
			c-0.1,0.3-0.3,0.7-0.5,1c-0.1,0.3-0.3,0.6-0.5,0.8c-0.3,0.5-0.7,1-1,1.5c-0.7,0.9-1.5,1.8-2.3,3c0,0-0.4,0.4-1.1,1.1
			c-0.3,0.3-0.7,0.7-1.2,1.1c-0.5,0.4-0.9,0.9-1.5,1.3c-1.1,0.9-2.3,1.8-3.6,2.7c-0.6,0.4-1.3,0.8-1.8,1.1c-0.6,0.3-1.2,0.6-1.7,0.9
			c0,0-0.3,0.2-1.2,0.6c-0.2,0.1-0.4,0.2-0.7,0.3c-0.3,0.1-0.6,0.2-1,0.4s-0.8,0.3-1.2,0.4c-0.2,0.1-0.4,0.1-0.7,0.2
			c-0.2,0-0.5,0.1-0.8,0.2c-0.7,0.2-1.1,0.3-1.3,0.4s-0.1,0.2-0.1,0.2c0-0.1,0-0.1-0.1-0.3c-0.7,0.3-1.8,0.6-3,0.7
			c-1.1,0.1-2.3,0.2-3.1,0.3v-0.3c-0.8,0.1-1.5,0.2-2.3,0.1c-0.4,0-0.8,0-1.2,0l-1.1-0.1c-1.5-0.2-3-0.4-4.5-0.7
			c0-0.1,0-0.1,0.1-0.3c-1.5-0.3-2.9-0.8-2.8-1l0.1-0.3c-0.7-0.3-1.7-0.7-2.6-1c-0.4-0.2-0.8-0.3-1.1-0.5c-0.2-0.1-0.4-0.3-0.4-0.3
			c-0.1,0.1-0.1,0.1-0.1,0.3c-1.4-0.6-2.5-1.4-3.6-2.1c-1.1-0.8-2.1-1.6-3-2.4c-1.8-1.6-3.3-3.3-4.5-5.2c-0.8-1.2-1.6-2.5-2.3-3.9
			c-0.7-1.4-1.3-2.8-1.8-4.4c-0.5-1.5-1-3.1-1.3-4.7c-0.3-1.6-0.5-3.3-0.6-5c-0.1-1.7,0-3.4,0.1-5.1s0.5-3.4,0.9-5
			c0.4-1.7,1-3.3,1.7-4.8c0.7-1.6,1.5-3,2.4-4.4c0.8-1.2,1.6-2.6,0.3-1.6c0.9-1.2,1.9-2.3,3-3.4c0.5-0.5,0.9-0.9,1.1-1.1
			c0.2-0.2,0.3-0.4,0.4-0.6c0.2-0.3,0.4-0.7,1.6-1.7c4.8-3.9,10.7-6.3,16.9-6.9c6.2-0.6,12.5,0.6,18,3.4c5.5,2.8,10.3,7.1,13.5,12.4
			c3.3,5.2,5.1,11.4,5.2,17.6c0-3.1-0.2-5.8-0.8-8.5c-0.6-2.7-1.6-5.3-3.2-8c0.1-0.1,0.4-0.2-0.4-1.6c-1.2-2-2.8-4-4.5-5.8
			c-1.7-1.8-3.6-3.4-5.5-4.6c-3.8-2.6-7.5-4-9.8-5c-0.7-0.3-1.5-0.6-2.7-1.1c-1.2-0.3-2.8-0.8-5.2-0.9c1.7,0.1,3.3,0.2,4.9,0.6
			c0-0.1,0.1-0.5,0.1-0.5c-3.3-0.7-7-1-10.8-0.6c-3.8,0.3-7.5,1.3-10.6,2.6c0,0-0.1-0.3-0.2-0.4c-1.1,0.4-2.1,1-3.1,1.5
			c-0.4,0.1-0.6,0-0.4-0.2c0.1-0.2,0.5-0.5,1.1-0.9c1.2-0.8,3.3-1.9,5.9-2.8c2.6-0.9,5.7-1.6,8.7-1.7c3-0.2,5.9-0.1,8.1,0.2
			c0-0.1,0-0.5,0.1-0.7c-1.2-0.2-2.4-0.2-3.6-0.3v-0.3c5.4,0.2,10.4,1.6,14.9,3.7c4.5,2.1,8.6,5.1,12.3,9.1
			c-0.3-0.3-0.7-0.7-1.1-1.2c-0.4-0.4-0.9-0.9-1.4-1.4c-0.5-0.4-1-0.9-1.5-1.3c-0.5-0.4-0.9-0.7-1.3-1c0.1-0.1,0.2-0.3-1.3-1.3
			c3,2.1,6.1,4.9,8.6,8.1c0.6,0.8,1.2,1.7,1.8,2.5c0.5,0.9,1.1,1.7,1.6,2.6c1,1.7,1.9,3.5,2.6,5.2c0.4,0.8,0.6,0.8,0.4-0.1
			c-0.1-0.4-0.2-1.2-0.6-2c-0.3-0.9-0.8-1.9-1.4-3.2c-1.4-2.4-2.7-4.4-4.2-6.2c-1.5-1.8-3.2-3.5-5.3-5.3l0.2-0.2
			c1.5,1.2,3.2,2.9,4.7,4.7c1.6,1.8,2.9,3.7,4,5.3c0.6,0.8,0.2-0.1-0.2-1c-0.2-0.4-0.4-0.9-0.5-1.1c-0.1-0.2,0-0.2,0.2,0.1
			c1.1,1.6,2.1,3.2,3.1,4.9c-1.3-2.6-3.1-5.4-5.3-8c-2.2-2.6-4.7-4.9-6.9-6.7c-0.7-0.6-1.5-1.3-2-1.7c-0.5-0.5-0.9-0.8-0.8-1
			c-4.2-2.5-8.3-4.2-12.1-5.3c-4-1-7.4-1.7-10.4-2.1c-1-0.1-4-0.2-7.5,0.4c-0.4,0.1-0.9,0.1-1.3,0.2c-0.4,0.1-0.9,0.2-1.4,0.3
			c-0.9,0.2-1.8,0.5-2.7,0.7C185.9,379.3,184.2,379.9,182.8,380.5L182.8,380.5z"/>
	</g>
	<rect x="255.4" y="376.9" width="2.7" height="90"/>
	<path d="M277,409.3c-3.6-3.6-5.4-8.1-5.4-13.5c0-5.4,1.8-9.9,5.4-13.5c3.6-3.6,8.1-5.4,13.5-5.4c5.4,0,9.9,1.8,13.5,5.4
		c3.6,3.6,5.4,8.1,5.4,13.5c0,5.4-1.8,9.9-5.4,13.5c-3.6,3.6-8.1,5.4-13.5,5.4C285.2,414.7,280.7,412.9,277,409.3L277,409.3z
		 M278.3,383.5c-3.3,3.3-4.9,7.5-4.9,12.4s1.6,9,4.9,12.4c3.3,3.3,7.4,5,12.2,5s8.9-1.7,12.2-5c3.3-3.3,4.9-7.5,4.9-12.4
		s-1.6-9-4.9-12.4c-3.3-3.3-7.4-5-12.2-5S281.6,380.1,278.3,383.5L278.3,383.5z M319.9,388.5h1.6v4.2c1.3-3.2,3.7-4.8,7.2-4.8l0,0
		c0.8,0,1.5,0.1,2.4,0.3l0,0v1.8c-0.7-0.3-1.5-0.5-2.4-0.5l0,0c-2.4,0-4.1,0.8-5.3,2.4c-1.2,1.6-1.8,3.7-1.8,6.4l0,0v15.8h-1.6
		V388.5L319.9,388.5z M341.3,407.2L341.3,407.2v7h-1.6v-37.3h1.6v18.7c1-2.3,2.5-4.1,4.6-5.5c2.1-1.4,4.4-2.1,7.1-2.1l0,0
		c3.7,0,6.9,1.3,9.5,3.9c2.6,2.6,3.8,5.7,3.8,9.5l0,0c0,3.8-1.3,7-3.8,9.5c-2.6,2.6-5.7,3.9-9.5,3.9l0,0c-2.7,0-5-0.7-7.1-2.1
		C343.8,411.3,342.3,409.5,341.3,407.2L341.3,407.2z M341.3,401.3L341.3,401.3c0,3.3,1.1,6.1,3.4,8.4c2.2,2.3,5,3.4,8.3,3.4
		c3.3,0,6-1.1,8.3-3.4c2.2-2.3,3.3-5.1,3.3-8.4l0,0c0-3.3-1.1-6.1-3.3-8.3c-2.2-2.3-5-3.4-8.3-3.4c-3.3,0-6,1.1-8.3,3.4
		C342.4,395.3,341.3,398,341.3,401.3L341.3,401.3z M376.4,388.5h1.6v25.7h-1.6V388.5L376.4,388.5z M375.7,379.8L375.7,379.8
		c0-0.5,0.2-0.9,0.5-1.2c0.3-0.3,0.7-0.5,1.1-0.5l0,0c0.5,0,0.9,0.2,1.2,0.5c0.3,0.3,0.5,0.7,0.5,1.2l0,0c0,0.4-0.2,0.8-0.5,1.1
		c-0.3,0.3-0.7,0.5-1.2,0.5l0,0c-0.4,0-0.8-0.2-1.1-0.5C375.8,380.6,375.7,380.2,375.7,379.8L375.7,379.8z M393.8,390v24.2h-1.6V390
		h-5.7v-1.5h5.7v-7.1l1.6-0.7v7.7h5.8v1.5H393.8L393.8,390z M408.4,392L408.4,392V390c2.3-1.4,4.8-2.1,7.2-2.1l0,0
		c2.6,0,4.7,0.7,6.4,2.2c1.7,1.5,2.5,3.7,2.5,6.7l0,0v17.3h-1.6v-3.7c-0.8,1.3-1.8,2.3-3.2,3.1c-1.4,0.8-2.9,1.2-4.6,1.2l0,0
		c-2.8,0-5.1-0.8-6.8-2.5c-1.8-1.7-2.7-3.8-2.7-6.2c0-2.5,0.9-4.6,2.7-6.2c1.8-1.7,4.1-2.5,6.8-2.5l0,0c1.7,0,3.2,0.4,4.7,1.2
		c1.5,0.8,2.5,1.8,3.2,3l0,0v-4.5c0-2.4-0.7-4.2-2.2-5.5c-1.5-1.2-3.2-1.9-5.1-1.9l0,0C413.1,389.6,410.7,390.4,408.4,392L408.4,392
		z M407.3,406L407.3,406c0,2,0.8,3.7,2.3,5.1c1.6,1.4,3.4,2.1,5.5,2.1l0,0c2.1,0,4-0.7,5.5-2.1c1.5-1.4,2.3-3.1,2.3-5.1l0,0
		c0-1.9-0.8-3.6-2.4-5s-3.4-2.1-5.5-2.1l0,0c-2.1,0-4,0.7-5.5,2.1C408.1,402.4,407.3,404,407.3,406L407.3,406z M436.4,376.9h1.6
		v37.3h-1.6V376.9L436.4,376.9z"/>
	<path d="M289.9,420.9L289.9,420.9v2.4c-2.3-2.1-5-3.1-8.1-3.1l0,0c-2.5,0-4.5,0.6-6,1.9c-1.6,1.3-2.3,3-2.3,5.1l0,0
		c0,2.4,1.4,4.6,4.1,6.3l0,0l7.8,5.1c2.2,1.4,3.7,2.8,4.5,4.1c0.9,1.3,1.3,2.9,1.3,4.7l0,0c0,2.5-1,4.6-2.9,6.4
		c-1.9,1.8-4.6,2.7-7.9,2.7l0,0c-3.1,0-6.1-0.9-8.8-2.6l0,0v-2.4c2.6,2.2,5.5,3.3,8.8,3.3l0,0c2.8,0,5.1-0.7,6.7-2.2
		c1.6-1.5,2.4-3.2,2.4-5.2l0,0c0-2.7-1.7-5.1-5-7.2l0,0l-7.7-5c-3.4-2.2-5.1-4.8-5.1-7.9l0,0c0-2.3,0.9-4.4,2.6-6.1
		c1.7-1.7,4.3-2.5,7.6-2.5l0,0C285.1,418.5,287.7,419.3,289.9,420.9L289.9,420.9z M305.2,431.6v24.2h-1.6v-24.2h-5.7v-1.5h5.7V423
		l1.6-0.7v7.7h5.8v1.5H305.2L305.2,431.6z M339.7,455.8h-1.6v-4.9c-1.5,3.6-4.4,5.4-8.7,5.4l0,0c-3.1,0-5.6-1-7.4-3
		c-1.9-2-2.8-4.6-2.8-7.8l0,0v-15.5h1.6v15.5c0,2.7,0.8,4.9,2.3,6.6c1.5,1.7,3.7,2.5,6.3,2.5l0,0c2.6,0,4.7-0.8,6.2-2.4
		c1.6-1.6,2.4-3.7,2.4-6.4l0,0v-15.8h1.6V455.8L339.7,455.8z M376.6,455.8H375v-7c-1,2.3-2.5,4.1-4.5,5.5c-2.1,1.4-4.4,2.1-7.1,2.1
		l0,0c-3.8,0-7-1.3-9.5-3.9c-2.6-2.6-3.8-5.8-3.8-9.5l0,0c0-3.7,1.3-6.9,3.8-9.5c2.6-2.6,5.7-3.9,9.5-3.9l0,0c2.6,0,5,0.7,7,2.1
		c2.1,1.4,3.6,3.2,4.6,5.5l0,0v-18.7h1.6V455.8L376.6,455.8z M375,442.9L375,442.9c0-3.3-1.1-6.1-3.4-8.3c-2.2-2.3-5-3.4-8.3-3.4
		c-3.3,0-6,1.1-8.3,3.4c-2.2,2.3-3.3,5-3.3,8.3l0,0c0,3.3,1.1,6.1,3.3,8.4c2.2,2.3,5,3.4,8.3,3.4c3.3,0,6-1.1,8.3-3.4
		C373.8,449,375,446.3,375,442.9L375,442.9z M392.3,466.9h-1.9l5.7-13.1l-10.4-23.7h1.9l9.4,21.7l9.5-21.7h1.9L392.3,466.9
		L392.3,466.9z"/>
</g>
</svg>
